<?xml version="1.0" encoding="UTF-8" standalone="no"?>
<svg
   xmlns:dc="http://purl.org/dc/elements/1.1/"
   xmlns:cc="http://creativecommons.org/ns#"
   xmlns:rdf="http://www.w3.org/1999/02/22-rdf-syntax-ns#"
   xmlns:svg="http://www.w3.org/2000/svg"
   xmlns="http://www.w3.org/2000/svg"
   xmlns:xlink="http://www.w3.org/1999/xlink"
   xmlns:sodipodi="http://sodipodi.sourceforge.net/DTD/sodipodi-0.dtd"
   xmlns:inkscape="http://www.inkscape.org/namespaces/inkscape"
   height="540"
   version="1.1"
   width="960"
   id="svg3979"
   sodipodi:docname="0000.svg"
   inkscape:version="0.92.2 (5c3e80d, 2017-08-06)"
   enable-background="new">
  <metadata
     id="metadata3985">
    <rdf:RDF>
      <cc:Work
         rdf:about="">
        <dc:format>image/svg+xml</dc:format>
        <dc:type
           rdf:resource="http://purl.org/dc/dcmitype/StillImage" />
        <dc:title />
      </cc:Work>
    </rdf:RDF>
  </metadata>
  <defs
     id="defs3983">
    <filter
       inkscape:collect="always"
       style="color-interpolation-filters:sRGB"
       id="filter4580">
      <feBlend
         inkscape:collect="always"
         mode="screen"
         in2="BackgroundImage"
         id="feBlend4582" />
    </filter>
  </defs>
  <sodipodi:namedview
     pagecolor="#ffffff"
     bordercolor="#666666"
     borderopacity="1"
     objecttolerance="10"
     gridtolerance="10"
     guidetolerance="10"
     inkscape:pageopacity="0"
     inkscape:pageshadow="2"
     inkscape:window-width="3840"
     inkscape:window-height="2004"
     id="namedview3981"
     showgrid="false"
     inkscape:zoom="2.1959594"
     inkscape:cx="417.07838"
     inkscape:cy="208.44181"
     inkscape:window-x="-16"
     inkscape:window-y="-16"
     inkscape:window-maximized="1"
     inkscape:current-layer="strokes" />
  <g
     id="RenderLayer_LineSet"
     inkscape:label="RenderLayer_LineSet"
     style="display:inline">
    <g
       id="strokes"
       inkscape:groupmode="layer"
       inkscape:label="strokes"
       style="display:inline">
      <path
         d="m 217.359,418.108 2.143,-6.793 3.553,-6.662 4.923,-6.466 6.251,-6.208 7.513,-5.891 8.448,-5.351 0.261,-0.165 8.877,-4.603 0.937,-0.486 9.201,-3.917 1.631,-0.694 9.443,-3.292 2.296,-0.8 3.627,-1.034 8.911,-2.496 9.762,-2.17 3.451,-0.767 9.862,-1.658 3.901,-0.655 9.927,-1.205 3.572,-0.433 9.973,-0.736 2.286,-0.169 9.991,-0.422 5.674,-0.24 0.933,-0.037 0.328,-0.013 0.177,-0.005 0.119,-0.004 0.091,-10e-4 0.076,-0.001 0.071,-10e-4 0.071,10e-4 0.077,0.001 0.042,-0.002 0.049,0.003 0.119,0.004 0.177,0.005 0.328,0.013 0.933,0.037 9.991,0.422 5.674,0.24 9.973,0.736 2.286,0.169 9.927,1.204 3.572,0.434 9.862,1.657 3.901,0.656 9.762,2.17 3.451,0.767 9.625,2.71 2.913,0.82 1.622,0.584 9.448,3.276 0.669,0.232 9.201,3.917 1.631,0.694 8.877,4.603 0.937,0.486 8.448,5.351 0.261,0.165 7.513,5.891 6.251,6.208 4.923,6.466 7.674,5.787 9.611,2.761 4.896,1.407 9.711,2.388 4.091,1.006 5.559,3.465 0.719,3.501 -0.719,3.5 -5.559,3.466 -9.711,2.388 -4.091,1.006 -9.611,2.761 -4.896,1.407 -7.674,5.786 -4.923,6.467 -6.251,6.208 -7.513,5.891 -8.448,5.35 -0.261,0.165 -8.877,4.604 -0.937,0.486 -9.201,3.917 -1.631,0.694 -9.441,3.296 -0.675,0.236 -1.623,0.56 -9.626,2.71 -2.912,0.82 -9.762,2.17 -3.451,0.767 -9.862,1.657 -3.901,0.656 -9.927,1.204 -3.572,0.434 -9.973,0.736 -2.286,0.168 -9.991,0.422 -5.674,0.24 -0.933,0.038 -0.328,0.012 -0.177,0.006 -0.119,0.003 -0.049,0.003 -0.042,-10e-4 -0.076,10e-4 h -0.071 -0.072 l -0.076,-10e-4 -0.091,-0.002 -0.119,-0.003 -0.177,-0.006 -0.328,-0.012 -0.933,-0.038 -9.991,-0.422 -5.674,-0.24 -9.973,-0.736 -2.286,-0.168 -9.927,-1.205 -3.572,-0.433 -9.862,-1.658 -3.901,-0.655 -9.762,-2.17 -3.451,-0.767 -8.908,-2.503 -3.63,-1.027 -9.443,-3.292 -2.296,-0.8 -9.201,-3.917 -1.631,-0.694 -8.877,-4.604 -0.937,-0.486 -8.448,-5.35 -0.261,-0.165 -7.513,-5.891 -6.251,-6.208 -4.923,-6.467 -3.553,-6.661 -2.143,-6.794 -0.719,-6.859 0.719,-6.86"
         id="path3917"
         inkscape:connector-curvature="0"
         style="fill:none;stroke:#000000;stroke-width:2;stroke-linecap:butt;stroke-linejoin:round;stroke-miterlimit:4;stroke-dasharray:none;stroke-opacity:1" />
      <path
         d="m 286.463,365.746 v 10 10 l 10e-4,10 v 10 10 l 10e-4,9.219"
         id="path3919"
         inkscape:connector-curvature="0"
         style="fill:none;stroke:#00ff00;stroke-width:2;stroke-linecap:butt;stroke-linejoin:round;stroke-miterlimit:4;stroke-dasharray:none;stroke-opacity:1" />
      <path
         d="m 286.465,424.965 -10,-0.031 -10,-0.031 -10,-0.032 -10,-0.031 -10,-0.031 -10,-0.032 -9.657,-0.03"
         id="path3921"
         inkscape:connector-curvature="0"
         style="fill:none;stroke:#000000;stroke-width:2;stroke-linecap:butt;stroke-linejoin:round;stroke-miterlimit:4;stroke-dasharray:none;stroke-opacity:1" />
      <path
         d="m 286.465,424.965 v 10 10 l 0.001,10 v 10 10 9.218"
         id="path3923"
         inkscape:connector-curvature="0"
         style="fill:none;stroke:#00ff00;stroke-width:2;stroke-linecap:butt;stroke-linejoin:round;stroke-miterlimit:4;stroke-dasharray:none;stroke-opacity:1"
         sodipodi:nodetypes="ccccccc" />
      <path
         d="m 365.758,354.733 v 10 10 10 10 10 10 10.234"
         id="path3925"
         inkscape:connector-curvature="0"
         style="fill:none;stroke:#00ff00;stroke-width:2;stroke-linecap:butt;stroke-linejoin:round;stroke-miterlimit:4;stroke-dasharray:none;stroke-opacity:1" />
      <path
         d="m 365.758,424.967 v 10 10 10 10 10 10 10.235"
         id="path3927"
         inkscape:connector-curvature="0"
         style="fill:none;stroke:#00ff00;stroke-width:2;stroke-linecap:butt;stroke-linejoin:round;stroke-miterlimit:4;stroke-dasharray:none;stroke-opacity:1"
         sodipodi:nodetypes="cccccccc" />
      <path
         d="m 449.924,424.981 v 10 10 10 10 10 7.615"
         id="path3929"
         inkscape:connector-curvature="0"
         style="fill:none;stroke:#00ff00;stroke-width:2;stroke-linecap:butt;stroke-linejoin:round;stroke-miterlimit:4;stroke-dasharray:none;stroke-opacity:1" />
      <path
         d="m 449.923,367.364 v 10 10 10 l 10e-4,10 v 10 7.617"
         id="path3931"
         inkscape:connector-curvature="0"
         style="fill:none;stroke:#00ff00;stroke-width:2;stroke-linecap:butt;stroke-linejoin:round;stroke-miterlimit:4;stroke-dasharray:none;stroke-opacity:1"
         sodipodi:nodetypes="ccccccc" />
      <path
         d="m 289.339,84.376 -0.003,-10 -0.003,-10 -0.003,-10 -0.003,-10 -0.003,-10 -0.003,-8.886 v -0.066 l 0.036,0.056 8.898,-2.493 9.764,-2.16 3.444,-0.762 9.863,-1.649 3.896,-0.652 9.932,-1.164 4.241,-0.497 9.976,-0.691 4.478,-0.31 9.997,-0.231 4.597,-0.105 9.997,0.23 4.597,0.106 9.976,0.691 4.478,0.31 9.932,1.164 4.242,0.497 9.863,1.65 3.895,0.651 9.764,2.16 3.444,0.762 9.629,2.698 2.905,0.814 1.612,0.504 9.431,3.323 0.692,0.244 9.208,3.901 1.62,0.686 8.886,4.586 0.925,0.477 8.46,5.333 0.246,0.155 7.51,5.86 6.249,6.176 4.921,6.434 7.671,4.921 9.937,1.125 4.562,0.516 9.924,1.229 3.866,0.478 5.553,5.118 0.719,6.823 -0.719,6.823 -5.553,5.118 -9.924,1.228 -3.866,0.478 -9.937,1.125 -4.562,0.516 -7.671,4.922 -4.921,6.433 -6.249,6.176 -7.51,5.861 -8.46,5.332 -0.246,0.155 -8.886,4.586 -0.925,0.477 -9.208,3.901 -1.62,0.687 -9.452,3.265 -0.671,0.232 -1.612,0.573 -9.629,2.698 -2.905,0.814 -9.764,2.16 -3.444,0.762 -9.863,1.65 -3.895,0.651 -9.933,1.164 -4.241,0.497 -9.976,0.691 -4.478,0.311 -9.997,0.23 -4.597,0.106 -9.997,-0.23 -4.597,-0.106 -9.976,-0.692 -4.478,-0.31 -9.932,-1.164 -4.241,-0.497 -9.863,-1.649 -3.896,-0.652 -9.763,-2.16 -3.445,-0.762 -8.934,-2.506 -3.6,-1.006 -9.447,-3.277 -2.288,-0.793 -9.207,-3.902 -1.621,-0.686 -8.886,-4.586 -0.925,-0.477 -8.46,-5.332 -0.246,-0.155 -7.51,-5.861 -6.249,-6.176 -4.921,-6.433 -3.552,-6.628 -2.142,-6.758 -0.719,-6.824 0.719,-6.824 2.142,-6.759 3.552,-6.627 4.921,-6.434 6.249,-6.176 7.51,-5.86 8.46,-5.333 0.246,-0.155 8.887,-4.585 0.924,-0.478 9.208,-3.901 1.62,-0.686 9.448,-3.277 2.287,-0.794 3.6,-1.009"
         id="path3933"
         inkscape:connector-curvature="0"
         style="fill:none;stroke:#000000;stroke-width:2;stroke-linecap:butt;stroke-linejoin:round;stroke-miterlimit:4;stroke-dasharray:none;stroke-opacity:1" />
      <path
         d="m 219.548,84.388 10,-0.002 10,-0.002 10,-0.001 10,-0.002 10,-0.002 10,-0.001 9.791,-0.002"
         id="path3935"
         inkscape:connector-curvature="0"
         style="fill:none;stroke:#00ff00;stroke-width:2;stroke-linecap:butt;stroke-linejoin:round;stroke-miterlimit:4;stroke-dasharray:none;stroke-opacity:1" />
      <path
         d="m 289.339,84.376 -0.003,10 -0.003,10 -0.003,10 -0.003,10 -0.003,10 -0.003,8.906"
         id="path3937"
         inkscape:connector-curvature="0"
         style="fill:none;stroke:#00ff00;stroke-width:2;stroke-linecap:butt;stroke-linejoin:round;stroke-miterlimit:4;stroke-dasharray:none;stroke-opacity:1" />
      <path
         d="m 452.777,84.353 v -10 -10 -10 -10 -10 -7.35"
         id="path3939"
         inkscape:connector-curvature="0"
         style="fill:none;stroke:#000000;stroke-width:2;stroke-linecap:butt;stroke-linejoin:round;stroke-miterlimit:4;stroke-dasharray:none;stroke-opacity:1" />
      <path
         d="m 553.157,84.388 -10,-0.004 -10,-0.003 -10,-0.004 -10,-0.003 -10,-0.003 -10,-0.004 -10,-0.003 -10,-0.004 -10,-0.003 -10.38,-0.004"
         id="path3941"
         inkscape:connector-curvature="0"
         style="fill:none;stroke:#00ff00;stroke-width:2;stroke-linecap:butt;stroke-linejoin:round;stroke-miterlimit:4;stroke-dasharray:none;stroke-opacity:1" />
      <path
         d="m 289.357,25.48 -0.003,10 -0.003,10 -0.003,10 -0.003,10 -0.003,10 -0.003,8.896"
         id="path3943"
         inkscape:connector-curvature="0"
         style="fill:none;stroke:#000000;stroke-width:2;stroke-linecap:butt;stroke-linejoin:round;stroke-miterlimit:4;stroke-dasharray:none;stroke-opacity:1" />
      <path
         d="m 368.443,14.766 v 10 10 10 10 10 10 9.622"
         id="path3945"
         inkscape:connector-curvature="0"
         style="fill:none;stroke:#000000;stroke-width:2;stroke-linecap:butt;stroke-linejoin:round;stroke-miterlimit:4;stroke-dasharray:none;stroke-opacity:1" />
      <path
         d="m 368.443,84.388 -10,-0.002 -10,-10e-4 -10,-0.002 -10,-10e-4 -10,-0.002 -10,-10e-4 -10,-0.002 -9.104,-10e-4"
         id="path3947"
         inkscape:connector-curvature="0"
         style="fill:none;stroke:#00ff00;stroke-width:2;stroke-linecap:butt;stroke-linejoin:round;stroke-miterlimit:4;stroke-dasharray:none;stroke-opacity:1" />
      <path
         d="m 452.777,141.703 v -10 -10 -10 -10 -10 -7.35 l -10,0.004 -10,0.004 -10,0.004 -10,0.004 -10,0.005 -10,0.004 -10,0.004 -10,0.004 -4.334,0.002 v 10 10 10 10 10 10 9.622"
         id="path3949"
         inkscape:connector-curvature="0"
         style="fill:none;stroke:#00ff00;stroke-width:2;stroke-linecap:butt;stroke-linejoin:round;stroke-miterlimit:4;stroke-dasharray:none;stroke-opacity:1" />
      <path
         d="m 635.09,207.764 -3.477,1.109 -1.269,0.495 -5.273,2.471 -3.031,1.646 -2.985,1.974 -4.178,3.116 -2.895,2.636 -2.866,2.88 -4.736,5.892 -1.018,1.604 -2.696,4.604 -2.863,6.468 -2.066,6.662 -1.247,6.794 -0.418,6.86 0.418,6.861 1.247,6.794 2.066,6.662 2.863,6.467 2.696,4.605 1.018,1.604 4.736,5.892 2.866,2.88 2.895,2.636 4.178,3.115 2.985,1.975 3.031,1.646 5.273,2.471 1.269,0.495 3.477,1.109 4.373,1.099 4.12,0.748 3.962,0.433 3.885,0.143 3.885,-0.143 3.962,-0.433 4.12,-0.748 4.373,-1.099 3.477,-1.109 1.269,-0.495 5.273,-2.471 3.031,-1.646 2.985,-1.975 4.179,-3.115 2.894,-2.636 2.866,-2.88 4.736,-5.892 1.018,-1.604 2.696,-4.605 2.863,-6.467 2.066,-6.662 1.247,-6.794 0.418,-6.861 -0.418,-6.86 -1.247,-6.794 -2.066,-6.662 -2.863,-6.468 -2.696,-4.604 -1.018,-1.604 -4.736,-5.892 -2.866,-2.88 -2.894,-2.636 -4.179,-3.116 -2.985,-1.974 -3.031,-1.646 -5.273,-2.471 -1.269,-0.495 -3.477,-1.109 -4.373,-1.1 -4.12,-0.747 -3.962,-0.433 -3.885,-0.143 -3.885,0.143 -3.962,0.433 -4.12,0.747 -4.373,1.1"
         id="path3951"
         inkscape:connector-curvature="0"
         style="fill:none;stroke:#000000;stroke-width:2;stroke-linecap:butt;stroke-linejoin:round;stroke-miterlimit:4;stroke-dasharray:none;stroke-opacity:1" />
      <path
         d="m 594.072,262.975 h 10 10 10 10 10 7.358"
         id="path3953"
         inkscape:connector-curvature="0"
         style="fill:none;stroke:#00ff00;stroke-width:2;stroke-linecap:butt;stroke-linejoin:round;stroke-miterlimit:4;stroke-dasharray:none;stroke-opacity:1" />
      <path
         d="m 651.43,262.975 v -10 -10 -10 -10 -10 -7.634"
         id="path3955"
         inkscape:connector-curvature="0"
         style="fill:none;stroke:#00ff00;stroke-width:2;stroke-linecap:butt;stroke-linejoin:round;stroke-miterlimit:4;stroke-dasharray:none;stroke-opacity:1" />
      <path
         d="m 651.43,320.61 v -10 -10 -10 -10 -10 -7.635"
         id="path3957"
         inkscape:connector-curvature="0"
         style="fill:none;stroke:#000000;stroke-width:2;stroke-linecap:butt;stroke-linejoin:round;stroke-miterlimit:4;stroke-dasharray:none;stroke-opacity:1"
         sodipodi:nodetypes="ccccccc" />
      <path
         d="m 557.89,268.895 -0.325,-6.632 -1.002,-6.793 -1.661,-6.661 -2.302,-6.466 -2.922,-6.207 -3.513,-5.891 -4.072,-5.515 -4.589,-5.088 -5.064,-4.611 -5.488,-4.092 -5.863,-3.529 -6.177,-2.937 -6.435,-2.313 -6.328,-1.639 -5.815,-0.913 -7.622,-0.688 -0.234,-0.025 -0.045,-0.002 -0.38,0.007 -0.232,0.02 -7.622,0.688 -5.815,0.913 -6.328,1.639 -6.435,2.313 -6.177,2.937 -5.863,3.529 -5.488,4.092 -5.064,4.611 -4.589,5.088 -4.072,5.515 -3.513,5.891 -2.922,6.207 -2.302,6.466 -1.661,6.661 -1.002,6.793 -0.325,6.62"
         id="path3959"
         inkscape:connector-curvature="0"
         style="fill:none;stroke:#000000;stroke-width:2;stroke-linecap:butt;stroke-linejoin:round;stroke-miterlimit:4;stroke-dasharray:none;stroke-opacity:1" />
      <path
         d="m 488.351,269.023 0.012,-10 0.011,-10 0.012,-10 0.012,-10 0.012,-10 0.011,-10 0.012,-10.13"
         id="path3961"
         inkscape:connector-curvature="0"
         style="fill:none;stroke:#00ff00;stroke-width:2;stroke-linecap:butt;stroke-linejoin:round;stroke-miterlimit:4;stroke-dasharray:none;stroke-opacity:1" />
      <path
         d="m 418.632,269.122 -0.006,-0.197 h 0.015 0.072 l 10,0.014 10,0.014 10,0.014 10,0.014 10,0.015 10,0.014 9.638,0.013"
         id="path3963"
         inkscape:connector-curvature="0"
         style="fill:none;stroke:#00ff00;stroke-width:2;stroke-linecap:butt;stroke-linejoin:round;stroke-miterlimit:4;stroke-dasharray:none;stroke-opacity:1" />
      <path
         style="fill:none;stroke:#00ff00;stroke-width:2;stroke-linecap:butt;stroke-linejoin:round;stroke-miterlimit:4;stroke-dasharray:none;stroke-opacity:1;filter:url(#filter4580)"
         d="m 488.351,269.023 10,-0.014 10,-0.014 10,-0.014 10,-0.014 10,-0.014 10,-0.014 9.42,-0.014 h 0.121 0.018 l -0.009,0.197"
         id="path3967"
         inkscape:connector-curvature="0"
         sodipodi:nodetypes="ccccccccccc"
         transform="matrix(1,0,0,-9.1737097,0,2736.9619)" />
      <path
         d="m 418.632,269.122 0.336,6.858 1.002,6.793 1.661,6.661 2.302,6.466 2.922,6.207 3.513,5.891 4.072,5.515 4.589,5.089 5.064,4.611 5.488,4.091 5.863,3.529 6.177,2.937 6.435,2.313 6.328,1.639 5.815,0.913 6.687,0.603 1.548,0.111 1.213,-0.111 6.687,-0.603 5.815,-0.913 6.328,-1.639 6.435,-2.313 6.177,-2.937 5.863,-3.529 5.488,-4.091 5.064,-4.611 4.589,-5.089 4.072,-5.515 3.513,-5.891 2.922,-6.207 2.302,-6.466 1.661,-6.661 1.002,-6.793 0.336,-6.858"
         id="path3965"
         inkscape:connector-curvature="0"
         style="fill:none;stroke:#000000;stroke-width:2;stroke-linecap:butt;stroke-linejoin:round;stroke-miterlimit:4;stroke-dasharray:none;stroke-opacity:1" />
      <path
         d="m 283.291,327.185 3.643,-0.108 3.714,-0.328 3.863,-0.566 0.121,-0.025 3.98,-1 4.449,-1.42 4.357,-1.672 0.587,-0.275 5.641,-3.063 2.079,-1.273 4.554,-3.395 2.06,-1.695 5.488,-5.515 0.534,-0.664 3.876,-5.227 3.635,-6.208 2.775,-6.269 0.082,-0.198 1.935,-6.662 1.167,-6.793 0.391,-6.86 -0.011,-0.196 -0.38,-6.663 -1.167,-6.794 -1.935,-6.662 -0.082,-0.197 -2.775,-6.269 -3.635,-6.208 -3.876,-5.227 -0.534,-0.664 -5.488,-5.516 -2.06,-1.695 -4.554,-3.394 -2.079,-1.273 -5.641,-3.064 -0.587,-0.275 -4.357,-1.671 -4.449,-1.42 -3.98,-1.001 -0.121,-0.024 -3.863,-0.566 -3.714,-0.329 -3.643,-0.108 -3.643,0.108 -3.715,0.329 -3.862,0.566 -0.122,0.024 -3.979,1.001 -4.45,1.42 -4.357,1.671 -0.587,0.275 -5.641,3.064 -2.079,1.273 -4.553,3.394 -2.06,1.695 -5.489,5.516 -0.533,0.664 -3.877,5.227 -3.635,6.208 -2.775,6.269 -0.082,0.197 -1.934,6.662 -1.167,6.794 -0.38,6.663 -0.012,0.196 0.392,6.86 1.167,6.793 1.934,6.662 0.082,0.198 2.775,6.269 3.635,6.208 3.877,5.227 0.533,0.664 5.489,5.515 2.06,1.695 4.553,3.395 2.079,1.272 5.641,3.064 0.587,0.275 4.357,1.672 4.45,1.42 3.979,1 0.122,0.025 3.862,0.566 3.715,0.328 3.643,0.108"
         id="path3969"
         inkscape:connector-curvature="0"
         style="fill:none;stroke:#000000;stroke-width:2;stroke-linecap:butt;stroke-linejoin:round;stroke-miterlimit:4;stroke-dasharray:none;stroke-opacity:1" />
      <path
         d="m 342.211,267.773 -10,0.025 -10,0.025 -10,0.025 -10,0.025 -10,0.025 -8.891,0.022"
         id="path3971"
         inkscape:connector-curvature="0"
         style="fill:none;stroke:#00ff00;stroke-width:2;stroke-linecap:butt;stroke-linejoin:round;stroke-miterlimit:4;stroke-dasharray:none;stroke-opacity:1" />
      <path
         d="m 283.32,267.92 -0.005,10 -0.005,10 -0.005,10 -0.005,10 -0.005,10 -0.004,9.265"
         id="path3973"
         inkscape:connector-curvature="0"
         style="fill:none;stroke:#000000;stroke-width:2;stroke-linecap:butt;stroke-linejoin:round;stroke-miterlimit:4;stroke-dasharray:none;stroke-opacity:1" />
      <path
         d="m 283.291,208.753 0.005,10 0.005,10 0.005,10 0.005,10 0.005,10 0.004,9.167 -10,0.008 -10,0.009 -10,0.008 -10,0.008 -10,0.009 -8.961,0.007"
         id="path3975"
         inkscape:connector-curvature="0"
         style="fill:none;stroke:#00ff00;stroke-width:2;stroke-linecap:butt;stroke-linejoin:round;stroke-miterlimit:4;stroke-dasharray:none;stroke-opacity:1" />
      <use
         x="0"
         y="0"
         xlink:href="#path3967"
         id="use884"
         width="100%"
         height="100%"
         style="display:none"
         transform="translate(0,-0.56350625)" />
      <path
         inkscape:connector-curvature="0"
         id="path888"
         d="m 488.434,339.349 -0.012,-10 -0.011,-10 -0.012,-10 -0.012,-10 -0.012,-10 -0.012,-10 -0.012,-10.326"
         style="fill:none;stroke:#000000;stroke-width:2;stroke-linecap:butt;stroke-linejoin:round;stroke-miterlimit:4;stroke-dasharray:none;stroke-opacity:1;filter:url(#filter4580)"
         sodipodi:nodetypes="cccccccc"
         transform="matrix(-19.716653,0,0,1.0059682,10117.785,-1.171422)" />
      <path
         style="fill:none;stroke:#00ff00;stroke-width:2;stroke-linecap:butt;stroke-linejoin:round;stroke-miterlimit:4;stroke-dasharray:none;stroke-opacity:1"
         inkscape:connector-curvature="0"
         id="path890"
         d="m 651.43,262.975 h 10 10 10 10 10 7.358"
         sodipodi:nodetypes="ccccccc" />
      <path
         style="fill:none;stroke:#000000;stroke-width:2;stroke-linecap:butt;stroke-linejoin:round;stroke-miterlimit:4;stroke-dasharray:none;stroke-opacity:1"
         inkscape:connector-curvature="0"
         id="path892"
         d="m 365.758,424.967 h -10 -10 -10 l -10,-10e-4 h -10 -10 l -10,-0.001 h -9.293"
         sodipodi:nodetypes="ccccccccc" />
      <path
         style="fill:none;stroke:#000000;stroke-width:2;stroke-linecap:butt;stroke-linejoin:round;stroke-miterlimit:4;stroke-dasharray:none;stroke-opacity:1"
         inkscape:connector-curvature="0"
         id="path894"
         d="m 449.924,424.981 -10,-0.002 -10,-10e-4 -10,-0.002 -10,-10e-4 -10,-0.002 -10,-0.002 -10,-10e-4 -10,-0.002 -4.166,-0.001"
         sodipodi:nodetypes="cccccccccc" />
      <path
         style="fill:none;stroke:#000000;stroke-width:2;stroke-linecap:butt;stroke-linejoin:round;stroke-miterlimit:4;stroke-dasharray:none;stroke-opacity:1"
         inkscape:connector-curvature="0"
         id="path896"
         d="m 449.924,424.981 10,-10e-4 10,-0.002 10,-0.001 10,-10e-4 10,-0.002 10,-10e-4 10,-0.001 10,-0.002 10,-0.001 10.419,-10e-4"
         sodipodi:nodetypes="ccccccccccc" />
    </g>
  </g>
</svg>
