<?xml version="1.0" encoding="UTF-8" standalone="no"?>
<svg
   xmlns:dc="http://purl.org/dc/elements/1.1/"
   xmlns:cc="http://creativecommons.org/ns#"
   xmlns:rdf="http://www.w3.org/1999/02/22-rdf-syntax-ns#"
   xmlns:svg="http://www.w3.org/2000/svg"
   xmlns="http://www.w3.org/2000/svg"
   xmlns:sodipodi="http://sodipodi.sourceforge.net/DTD/sodipodi-0.dtd"
   xmlns:inkscape="http://www.inkscape.org/namespaces/inkscape"
   height="420mm"
   version="1.1"
   width="594mm"
   id="svg3979"
   sodipodi:docname="0001.svg"
   inkscape:version="0.92.2 (5c3e80d, 2017-08-06)"
   style="enable-background:new">
  <metadata
     id="metadata3985">
    <rdf:RDF>
      <cc:Work
         rdf:about="">
        <dc:format>image/svg+xml</dc:format>
        <dc:type
           rdf:resource="http://purl.org/dc/dcmitype/StillImage" />
        <dc:title></dc:title>
      </cc:Work>
    </rdf:RDF>
  </metadata>
  <defs
     id="defs3983" />
  <sodipodi:namedview
     pagecolor="#ffffff"
     bordercolor="#666666"
     borderopacity="1"
     objecttolerance="10"
     gridtolerance="10"
     guidetolerance="10"
     inkscape:pageopacity="0"
     inkscape:pageshadow="2"
     inkscape:window-width="3840"
     inkscape:window-height="2004"
     id="namedview3981"
     showgrid="false"
     inkscape:zoom="0.70710678"
     inkscape:cx="1573.0022"
     inkscape:cy="570.69898"
     inkscape:window-x="-16"
     inkscape:window-y="-16"
     inkscape:window-maximized="1"
     inkscape:current-layer="strokes"
     units="mm" />
  <g
     id="RenderLayer_LineSet"
     inkscape:label="RenderLayer_LineSet"
     style="display:inline"
     transform="translate(0,1047.4016)">
    <g
       id="strokes"
       inkscape:groupmode="layer"
       inkscape:label="strokes"
       style="display:inline">
      <g
         id="g1055">
        <g
           style="fill:none;stroke-width:0.16666666;stroke-miterlimit:4;stroke-dasharray:none"
           transform="matrix(2,0,0,2,-180.22708,7.34202)"
           id="g978">
          <g
             id="g868"
             transform="matrix(2,0,0,2,-318.95599,-530.66216)"
             style="fill:none;stroke-width:0.08333333;stroke-miterlimit:4;stroke-dasharray:none">
            <path
               style="fill:none;stroke:#000000;stroke-width:0.08333333;stroke-linecap:butt;stroke-linejoin:round;stroke-miterlimit:4;stroke-dasharray:none;stroke-opacity:1"
               inkscape:connector-curvature="0"
               id="path3933"
               d="m 289.339,84.376 -0.003,-10 -0.003,-10 -0.003,-10 -0.003,-10 -0.003,-10 -0.003,-8.886 v -0.066 l 0.036,0.056 8.898,-2.493 9.764,-2.16 3.444,-0.762 9.863,-1.649 3.896,-0.652 9.932,-1.164 4.241,-0.497 9.976,-0.691 4.478,-0.31 9.997,-0.231 4.597,-0.105 9.997,0.23 4.597,0.106 9.976,0.691 4.478,0.31 9.932,1.164 4.242,0.497 9.863,1.65 3.895,0.651 9.764,2.16 3.444,0.762 9.629,2.698 2.905,0.814 1.612,0.504 9.431,3.323 0.692,0.244 9.208,3.901 1.62,0.686 8.886,4.586 0.925,0.477 8.46,5.333 0.246,0.155 7.51,5.86 6.249,6.176 4.921,6.434 7.671,4.921 9.937,1.125 4.562,0.516 9.924,1.229 3.866,0.478 5.553,5.118 0.719,6.823 -0.719,6.823 -5.553,5.118 -9.924,1.228 -3.866,0.478 -9.937,1.125 -4.562,0.516 -7.671,4.922 -4.921,6.433 -6.249,6.176 -7.51,5.861 -8.46,5.332 -0.246,0.155 -8.886,4.586 -0.925,0.477 -9.208,3.901 -1.62,0.687 -9.452,3.265 -0.671,0.232 -1.612,0.573 -9.629,2.698 -2.905,0.814 -9.764,2.16 -3.444,0.762 -9.863,1.65 -3.895,0.651 -9.933,1.164 -4.241,0.497 -9.976,0.691 -4.478,0.311 -9.997,0.23 -4.597,0.106 -9.997,-0.23 -4.597,-0.106 -9.976,-0.692 -4.478,-0.31 -9.932,-1.164 -4.241,-0.497 -9.863,-1.649 -3.896,-0.652 -9.763,-2.16 -3.445,-0.762 -8.934,-2.506 -3.6,-1.006 -9.447,-3.277 -2.288,-0.793 -9.207,-3.902 -1.621,-0.686 -8.886,-4.586 -0.925,-0.477 -8.46,-5.332 -0.246,-0.155 -7.51,-5.861 -6.249,-6.176 -4.921,-6.433 -3.552,-6.628 -2.142,-6.758 -0.719,-6.824 0.719,-6.824 2.142,-6.759 3.552,-6.627 4.921,-6.434 6.249,-6.176 7.51,-5.86 8.46,-5.333 0.246,-0.155 8.887,-4.585 0.924,-0.478 9.208,-3.901 1.62,-0.686 9.448,-3.277 2.287,-0.794 3.6,-1.009" />
            <path
               style="fill:none;stroke:#00ff00;stroke-width:0.08333333;stroke-linecap:butt;stroke-linejoin:round;stroke-miterlimit:4;stroke-dasharray:none;stroke-opacity:1"
               inkscape:connector-curvature="0"
               id="path3935"
               d="m 219.548,84.388 10,-0.002 10,-0.002 10,-0.001 10,-0.002 10,-0.002 10,-0.001 9.791,-0.002" />
            <path
               style="fill:none;stroke:#00ff00;stroke-width:0.08333333;stroke-linecap:butt;stroke-linejoin:round;stroke-miterlimit:4;stroke-dasharray:none;stroke-opacity:1"
               inkscape:connector-curvature="0"
               id="path3937"
               d="m 289.339,84.376 -0.003,10 -0.003,10 -0.003,10 -0.003,10 -0.003,10 -0.003,8.906" />
            <path
               style="fill:none;stroke:#000000;stroke-width:0.08333333;stroke-linecap:butt;stroke-linejoin:round;stroke-miterlimit:4;stroke-dasharray:none;stroke-opacity:1"
               inkscape:connector-curvature="0"
               id="path3939"
               d="m 452.777,84.353 v -10 -10 -10 -10 -10 -7.35" />
            <path
               style="fill:none;stroke:#00ff00;stroke-width:0.08333333;stroke-linecap:butt;stroke-linejoin:round;stroke-miterlimit:4;stroke-dasharray:none;stroke-opacity:1"
               inkscape:connector-curvature="0"
               id="path3941"
               d="m 553.157,84.388 -10,-0.004 -10,-0.003 -10,-0.004 -10,-0.003 -10,-0.003 -10,-0.004 -10,-0.003 -10,-0.004 -10,-0.003 -10.38,-0.004" />
            <path
               style="fill:none;stroke:#000000;stroke-width:0.08333333;stroke-linecap:butt;stroke-linejoin:round;stroke-miterlimit:4;stroke-dasharray:none;stroke-opacity:1"
               inkscape:connector-curvature="0"
               id="path3943"
               d="m 289.357,25.48 -0.003,10 -0.003,10 -0.003,10 -0.003,10 -0.003,10 -0.003,8.896" />
            <path
               style="fill:none;stroke:#000000;stroke-width:0.08333333;stroke-linecap:butt;stroke-linejoin:round;stroke-miterlimit:4;stroke-dasharray:none;stroke-opacity:1"
               inkscape:connector-curvature="0"
               id="path3945"
               d="m 368.443,14.766 v 10 10 10 10 10 10 9.622" />
            <path
               style="fill:none;stroke:#00ff00;stroke-width:0.08333333;stroke-linecap:butt;stroke-linejoin:round;stroke-miterlimit:4;stroke-dasharray:none;stroke-opacity:1"
               inkscape:connector-curvature="0"
               id="path3947"
               d="m 368.443,84.388 -10,-0.002 -10,-10e-4 -10,-0.002 -10,-10e-4 -10,-0.002 -10,-10e-4 -10,-0.002 -9.104,-10e-4" />
            <path
               style="fill:none;stroke:#00ff00;stroke-width:0.08333333;stroke-linecap:butt;stroke-linejoin:round;stroke-miterlimit:4;stroke-dasharray:none;stroke-opacity:1"
               inkscape:connector-curvature="0"
               id="path3949"
               d="m 452.777,141.703 v -10 -10 -10 -10 -10 -7.35 l -10,0.004 -10,0.004 -10,0.004 -10,0.004 -10,0.005 -10,0.004 -10,0.004 -10,0.004 -4.334,0.002 v 10 10 10 10 10 10 9.622" />
          </g>
        </g>
        <rect
           y="-961.6922"
           x="329.55847"
           height="245.1001"
           width="18.897638"
           id="rect1018"
           style="fill:none;fill-opacity:1;stroke:#000000;stroke-width:0.36933827;stroke-miterlimit:4;stroke-dasharray:none;stroke-opacity:1" />
        <rect
           y="-1004.8427"
           x="646.30096"
           height="288.26886"
           width="18.897638"
           id="rect1018-1"
           style="display:inline;fill:none;fill-opacity:1;stroke:#000000;stroke-width:0.40054512;stroke-miterlimit:4;stroke-dasharray:none;stroke-opacity:1;enable-background:new" />
        <rect
           y="-952.92456"
           x="983.41693"
           height="236.15067"
           width="18.897638"
           id="rect1018-9"
           style="display:inline;fill:none;fill-opacity:1;stroke:#000000;stroke-width:0.36253268;stroke-miterlimit:4;stroke-dasharray:none;stroke-opacity:1;enable-background:new" />
      </g>
      <g
         id="g1248">
        <g
           id="g1137">
          <g
             id="g1016"
             transform="matrix(2,0,0,2,-768.74455,-266.49469)"
             style="fill:none;stroke-width:0.16666666;stroke-miterlimit:4;stroke-dasharray:none">
            <g
               style="fill:none;stroke-width:0.08333333;stroke-miterlimit:4;stroke-dasharray:none"
               transform="matrix(2,0,0,2,368.79927,-607.1202)"
               id="g901">
              <path
                 d="m 217.359,418.108 2.143,-6.793 3.553,-6.662 4.923,-6.466 6.251,-6.208 7.513,-5.891 8.448,-5.351 0.261,-0.165 8.877,-4.603 0.937,-0.486 9.201,-3.917 1.631,-0.694 9.443,-3.292 2.296,-0.8 3.627,-1.034 8.911,-2.496 9.762,-2.17 3.451,-0.767 9.862,-1.658 3.901,-0.655 9.927,-1.205 3.572,-0.433 9.973,-0.736 2.286,-0.169 9.991,-0.422 5.674,-0.24 0.933,-0.037 0.328,-0.013 0.177,-0.005 0.119,-0.004 0.091,-10e-4 0.076,-0.001 0.071,-10e-4 0.071,10e-4 0.077,0.001 0.042,-0.002 0.049,0.003 0.119,0.004 0.177,0.005 0.328,0.013 0.933,0.037 9.991,0.422 5.674,0.24 9.973,0.736 2.286,0.169 9.927,1.204 3.572,0.434 9.862,1.657 3.901,0.656 9.762,2.17 3.451,0.767 9.625,2.71 2.913,0.82 1.622,0.584 9.448,3.276 0.669,0.232 9.201,3.917 1.631,0.694 8.877,4.603 0.937,0.486 8.448,5.351 0.261,0.165 7.513,5.891 6.251,6.208 4.923,6.466 7.674,5.787 9.611,2.761 4.896,1.407 9.711,2.388 4.091,1.006 5.559,3.465 0.719,3.501 -0.719,3.5 -5.559,3.466 -9.711,2.388 -4.091,1.006 -9.611,2.761 -4.896,1.407 -7.674,5.786 -4.923,6.467 -6.251,6.208 -7.513,5.891 -8.448,5.35 -0.261,0.165 -8.877,4.604 -0.937,0.486 -9.201,3.917 -1.631,0.694 -9.441,3.296 -0.675,0.236 -1.623,0.56 -9.626,2.71 -2.912,0.82 -9.762,2.17 -3.451,0.767 -9.862,1.657 -3.901,0.656 -9.927,1.204 -3.572,0.434 -9.973,0.736 -2.286,0.168 -9.991,0.422 -5.674,0.24 -0.933,0.038 -0.328,0.012 -0.177,0.006 -0.119,0.003 -0.049,0.003 -0.042,-10e-4 -0.076,10e-4 h -0.071 -0.072 l -0.076,-10e-4 -0.091,-0.002 -0.119,-0.003 -0.177,-0.006 -0.328,-0.012 -0.933,-0.038 -9.991,-0.422 -5.674,-0.24 -9.973,-0.736 -2.286,-0.168 -9.927,-1.205 -3.572,-0.433 -9.862,-1.658 -3.901,-0.655 -9.762,-2.17 -3.451,-0.767 -8.908,-2.503 -3.63,-1.027 -9.443,-3.292 -2.296,-0.8 -9.201,-3.917 -1.631,-0.694 -8.877,-4.604 -0.937,-0.486 -8.448,-5.35 -0.261,-0.165 -7.513,-5.891 -6.251,-6.208 -4.923,-6.467 -3.553,-6.661 -2.143,-6.794 -0.719,-6.859 0.719,-6.86"
                 id="path3917"
                 inkscape:connector-curvature="0"
                 style="fill:none;stroke:#000000;stroke-width:0.08333333;stroke-linecap:butt;stroke-linejoin:round;stroke-miterlimit:4;stroke-dasharray:none;stroke-opacity:1" />
              <path
                 d="m 286.463,365.746 v 10 10 l 10e-4,10 v 10 10 l 10e-4,9.219"
                 id="path3919"
                 inkscape:connector-curvature="0"
                 style="fill:none;stroke:#00ff00;stroke-width:0.08333333;stroke-linecap:butt;stroke-linejoin:round;stroke-miterlimit:4;stroke-dasharray:none;stroke-opacity:1" />
              <path
                 d="m 286.465,424.965 -10,-0.031 -10,-0.031 -10,-0.032 -10,-0.031 -10,-0.031 -10,-0.032 -9.657,-0.03"
                 id="path3921"
                 inkscape:connector-curvature="0"
                 style="fill:none;stroke:#000000;stroke-width:0.08333333;stroke-linecap:butt;stroke-linejoin:round;stroke-miterlimit:4;stroke-dasharray:none;stroke-opacity:1" />
              <path
                 d="m 286.465,424.965 v 10 10 l 0.001,10 v 10 10 9.218"
                 id="path3923"
                 inkscape:connector-curvature="0"
                 style="fill:none;stroke:#00ff00;stroke-width:0.08333333;stroke-linecap:butt;stroke-linejoin:round;stroke-miterlimit:4;stroke-dasharray:none;stroke-opacity:1"
                 sodipodi:nodetypes="ccccccc" />
              <path
                 d="m 365.758,354.733 v 10 10 10 10 10 10 10.234"
                 id="path3925"
                 inkscape:connector-curvature="0"
                 style="fill:none;stroke:#00ff00;stroke-width:0.08333333;stroke-linecap:butt;stroke-linejoin:round;stroke-miterlimit:4;stroke-dasharray:none;stroke-opacity:1" />
              <path
                 d="m 365.758,424.967 v 10 10 10 10 10 10 10.235"
                 id="path3927"
                 inkscape:connector-curvature="0"
                 style="fill:none;stroke:#00ff00;stroke-width:0.08333333;stroke-linecap:butt;stroke-linejoin:round;stroke-miterlimit:4;stroke-dasharray:none;stroke-opacity:1"
                 sodipodi:nodetypes="cccccccc" />
              <path
                 d="m 449.924,424.981 v 10 10 10 10 10 7.615"
                 id="path3929"
                 inkscape:connector-curvature="0"
                 style="fill:none;stroke:#00ff00;stroke-width:0.08333333;stroke-linecap:butt;stroke-linejoin:round;stroke-miterlimit:4;stroke-dasharray:none;stroke-opacity:1" />
              <path
                 d="m 449.923,367.364 v 10 10 10 l 10e-4,10 v 10 7.617"
                 id="path3931"
                 inkscape:connector-curvature="0"
                 style="fill:none;stroke:#00ff00;stroke-width:0.08333333;stroke-linecap:butt;stroke-linejoin:round;stroke-miterlimit:4;stroke-dasharray:none;stroke-opacity:1"
                 sodipodi:nodetypes="ccccccc" />
              <path
                 style="fill:none;stroke:#000000;stroke-width:0.08333333;stroke-linecap:butt;stroke-linejoin:round;stroke-miterlimit:4;stroke-dasharray:none;stroke-opacity:1"
                 inkscape:connector-curvature="0"
                 id="path892"
                 d="m 365.758,424.967 h -10 -10 -10 l -10,-10e-4 h -10 -10 l -10,-0.001 h -9.293"
                 sodipodi:nodetypes="ccccccccc" />
              <path
                 style="fill:none;stroke:#000000;stroke-width:0.08333333;stroke-linecap:butt;stroke-linejoin:round;stroke-miterlimit:4;stroke-dasharray:none;stroke-opacity:1"
                 inkscape:connector-curvature="0"
                 id="path894"
                 d="m 449.924,424.981 -10,-0.002 -10,-10e-4 -10,-0.002 -10,-10e-4 -10,-0.002 -10,-0.002 -10,-10e-4 -10,-0.002 -4.166,-0.001"
                 sodipodi:nodetypes="cccccccccc" />
              <path
                 style="fill:none;stroke:#000000;stroke-width:0.08333333;stroke-linecap:butt;stroke-linejoin:round;stroke-miterlimit:4;stroke-dasharray:none;stroke-opacity:1"
                 inkscape:connector-curvature="0"
                 id="path896"
                 d="m 449.924,424.981 10,-10e-4 10,-0.002 10,-0.001 10,-10e-4 10,-0.002 10,-10e-4 10,-0.001 10,-0.002 10,-0.001 10.419,-10e-4"
                 sodipodi:nodetypes="ccccccccccc" />
            </g>
          </g>
          <rect
             style="display:inline;fill:none;fill-opacity:1;stroke:#000000;stroke-width:0.42649293;stroke-miterlimit:4;stroke-dasharray:none;stroke-opacity:1;enable-background:new"
             id="rect1018-6"
             width="18.879749"
             height="327.13708"
             x="1105.1284"
             y="51.420876" />
          <rect
             style="display:inline;fill:none;fill-opacity:1;stroke:#000000;stroke-width:0.48397622;stroke-miterlimit:4;stroke-dasharray:none;stroke-opacity:1;enable-background:new"
             id="rect1018-6-7"
             width="18.849382"
             height="421.94241"
             x="1422.4095"
             y="7.2433448" />
          <rect
             style="display:inline;fill:none;fill-opacity:1;stroke:#000000;stroke-width:0.42649293;stroke-miterlimit:4;stroke-dasharray:none;stroke-opacity:1;enable-background:new"
             id="rect1018-6-2"
             width="18.879749"
             height="327.13708"
             x="1759.0216"
             y="53.369312" />
        </g>
      </g>
      <g
         id="g1229">
        <g
           id="g1077">
          <g
             id="g986"
             transform="matrix(2,0,0,2,-934.55012,57.658965)"
             style="fill:none;stroke-width:0.16666666;stroke-miterlimit:4;stroke-dasharray:none">
            <path
               style="fill:none;stroke:#000000;stroke-width:0.16666666;stroke-linecap:butt;stroke-linejoin:round;stroke-miterlimit:4;stroke-dasharray:none;stroke-opacity:1"
               inkscape:connector-curvature="0"
               id="path3959"
               d="m 861.3326,-55.37871 -0.65,-13.264 -2.004,-13.586 -3.322,-13.322 -4.604,-12.932 -5.844,-12.414 -7.026,-11.782 -8.144,-11.03 -9.178,-10.176 -10.128,-9.222 -10.976,-8.184 -11.726,-7.058 -12.354,-5.874 -12.87,-4.626 -12.656,-3.278 -11.63,-1.826 -15.244,-1.376 -0.468,-0.05 -0.09,-0.004 -0.76,0.014 -0.464,0.04 -15.244,1.376 -11.63,1.826 -12.656,3.278 -12.87,4.626 -12.354,5.874 -11.726,7.058 -10.976,8.184 -10.128,9.222 -9.178,10.176 -8.144,11.03 -7.026,11.782 -5.844,12.414 -4.604,12.932 -3.322,13.322 -2.004,13.586 -0.65,13.24" />
            <path
               style="fill:none;stroke:#00ff00;stroke-width:0.16666666;stroke-linecap:butt;stroke-linejoin:round;stroke-miterlimit:4;stroke-dasharray:none;stroke-opacity:1"
               inkscape:connector-curvature="0"
               id="path3961"
               d="m 722.2546,-55.12271 0.024,-20 0.022,-20 0.024,-20 0.024,-20 0.024,-20 0.022,-20 0.024,-20.26" />
            <path
               style="fill:none;stroke:#00ff00;stroke-width:0.16666666;stroke-linecap:butt;stroke-linejoin:round;stroke-miterlimit:4;stroke-dasharray:none;stroke-opacity:1"
               inkscape:connector-curvature="0"
               id="path3963"
               d="m 582.8166,-54.92471 -0.012,-0.394 h 0.03 0.144 l 20,0.028 20,0.028 20,0.028 20,0.028 20,0.03 20,0.028 19.276,0.026" />
            <path
               style="fill:none;stroke:#000000;stroke-width:0.16666666;stroke-linecap:butt;stroke-linejoin:round;stroke-miterlimit:4;stroke-dasharray:none;stroke-opacity:1"
               inkscape:connector-curvature="0"
               id="path3965"
               d="m 582.8166,-54.92471 0.672,13.716 2.004,13.586 3.322,13.322 4.604,12.932 5.844,12.414 7.026,11.782 8.144,11.03 9.178,10.178 10.128,9.222 10.976,8.182 11.726,7.058 12.354,5.874 12.87,4.626 12.656,3.278 11.63,1.826 13.374,1.206 3.096,0.222 2.426,-0.222 13.374,-1.206 11.63,-1.826 12.656,-3.278 12.87,-4.626 12.354,-5.874 11.726,-7.058 10.976,-8.182 10.128,-9.222 9.178,-10.178 8.144,-11.03 7.026,-11.782 5.844,-12.414 4.604,-12.932 3.322,-13.322 2.004,-13.586 0.672,-13.716" />
            <path
               style="display:inline;fill:none;stroke:#00ff00;stroke-width:0.16666666;stroke-linecap:butt;stroke-linejoin:round;stroke-miterlimit:4;stroke-dasharray:none;stroke-opacity:1;enable-background:new"
               inkscape:connector-curvature="0"
               id="path3963-3"
               d="m 722.26663,-54.72871 -0.012,-0.394 h 0.0301 0.14436 l 20.04897,0.028 20.04898,0.028 20.04899,0.028 20.04898,0.028 20.04899,0.03 20.04899,0.028 19.32321,0.026" />
            <path
               style="display:inline;fill:none;fill-opacity:1;stroke:#000000;stroke-width:0.16666666;stroke-linecap:butt;stroke-linejoin:round;stroke-miterlimit:4;stroke-dasharray:none;stroke-opacity:1;enable-background:new"
               inkscape:connector-curvature="0"
               id="path3961-0"
               d="m 722.09063,85.137294 0.024,-20 0.022,-20 0.024,-20 0.024,-20 0.024,-20 0.022,-20.000004 0.024,-20.26" />
          </g>
          <rect
             style="display:inline;fill:none;fill-opacity:1;stroke:#000000;stroke-width:0.40270334;stroke-miterlimit:4;stroke-dasharray:none;stroke-opacity:1;enable-background:new"
             id="rect1018-5"
             width="18.864534"
             height="291.89505"
             x="500.36765"
             y="-52.638996" />
        </g>
        <rect
           transform="rotate(90)"
           y="-353.91025"
           x="-62.555248"
           height="136.36829"
           width="19.029789"
           id="rect1018-6-23"
           style="display:inline;fill:none;fill-opacity:1;stroke:#000000;stroke-width:0.27645376;stroke-miterlimit:4;stroke-dasharray:none;stroke-opacity:1;enable-background:new" />
        <rect
           transform="rotate(90)"
           y="-801.43414"
           x="-61.954262"
           height="136.36829"
           width="19.029789"
           id="rect1018-6-23-5"
           style="display:inline;fill:none;fill-opacity:1;stroke:#000000;stroke-width:0.27645376;stroke-miterlimit:4;stroke-dasharray:none;stroke-opacity:1;enable-background:new" />
      </g>
      <g
         id="g1216">
        <g
           transform="translate(-11.839927,12.750691)"
           id="g1086">
          <g
             id="g1002"
             transform="matrix(2,0,0,2,879.75467,-776.17536)"
             style="fill:none;stroke-width:0.16666666;stroke-miterlimit:4;stroke-dasharray:none">
            <g
               style="fill:none;stroke-width:0.08333333;stroke-miterlimit:4;stroke-dasharray:none"
               transform="matrix(2,0,0,2,-294.21966,-335.36526)"
               id="g874">
              <path
                 d="m 283.291,327.185 3.643,-0.108 3.714,-0.328 3.863,-0.566 0.121,-0.025 3.98,-1 4.449,-1.42 4.357,-1.672 0.587,-0.275 5.641,-3.063 2.079,-1.273 4.554,-3.395 2.06,-1.695 5.488,-5.515 0.534,-0.664 3.876,-5.227 3.635,-6.208 2.775,-6.269 0.082,-0.198 1.935,-6.662 1.167,-6.793 0.391,-6.86 -0.011,-0.196 -0.38,-6.663 -1.167,-6.794 -1.935,-6.662 -0.082,-0.197 -2.775,-6.269 -3.635,-6.208 -3.876,-5.227 -0.534,-0.664 -5.488,-5.516 -2.06,-1.695 -4.554,-3.394 -2.079,-1.273 -5.641,-3.064 -0.587,-0.275 -4.357,-1.671 -4.449,-1.42 -3.98,-1.001 -0.121,-0.024 -3.863,-0.566 -3.714,-0.329 -3.643,-0.108 -3.643,0.108 -3.715,0.329 -3.862,0.566 -0.122,0.024 -3.979,1.001 -4.45,1.42 -4.357,1.671 -0.587,0.275 -5.641,3.064 -2.079,1.273 -4.553,3.394 -2.06,1.695 -5.489,5.516 -0.533,0.664 -3.877,5.227 -3.635,6.208 -2.775,6.269 -0.082,0.197 -1.934,6.662 -1.167,6.794 -0.38,6.663 -0.012,0.196 0.392,6.86 1.167,6.793 1.934,6.662 0.082,0.198 2.775,6.269 3.635,6.208 3.877,5.227 0.533,0.664 5.489,5.515 2.06,1.695 4.553,3.395 2.079,1.272 5.641,3.064 0.587,0.275 4.357,1.672 4.45,1.42 3.979,1 0.122,0.025 3.862,0.566 3.715,0.328 3.643,0.108"
                 id="path3969"
                 inkscape:connector-curvature="0"
                 style="fill:none;stroke:#000000;stroke-width:0.08333333;stroke-linecap:butt;stroke-linejoin:round;stroke-miterlimit:4;stroke-dasharray:none;stroke-opacity:1" />
              <path
                 d="m 342.211,267.773 -10,0.025 -10,0.025 -10,0.025 -10,0.025 -10,0.025 -8.891,0.022"
                 id="path3971"
                 inkscape:connector-curvature="0"
                 style="fill:none;stroke:#00ff00;stroke-width:0.08333333;stroke-linecap:butt;stroke-linejoin:round;stroke-miterlimit:4;stroke-dasharray:none;stroke-opacity:1" />
              <path
                 d="m 283.32,267.11485 -0.005,10.13588 -0.005,10.13588 -0.005,10.13588 -0.005,10.13588 -0.005,10.13588 -0.004,9.39089"
                 id="path3973"
                 inkscape:connector-curvature="0"
                 style="fill:none;stroke:#000000;stroke-width:0.08333333;stroke-linecap:butt;stroke-linejoin:round;stroke-miterlimit:4;stroke-dasharray:none;stroke-opacity:1" />
              <path
                 d="m 283.291,208.753 0.005,10 0.005,10 0.005,10 0.005,10 0.005,10 0.004,9.167 -10,0.008 -10,0.009 -10,0.008 -10,0.008 -10,0.009 -8.961,0.007"
                 id="path3975"
                 inkscape:connector-curvature="0"
                 style="fill:none;stroke:#00ff00;stroke-width:0.08333333;stroke-linecap:butt;stroke-linejoin:round;stroke-miterlimit:4;stroke-dasharray:none;stroke-opacity:1" />
            </g>
          </g>
          <rect
             style="display:inline;fill:none;fill-opacity:1;stroke:#000000;stroke-width:0.36933827;stroke-miterlimit:4;stroke-dasharray:none;stroke-opacity:1;enable-background:new"
             id="rect1018-3"
             width="18.897638"
             height="245.1001"
             x="1415.2384"
             y="-375.20193" />
        </g>
        <rect
           transform="rotate(90)"
           y="-1268.5985"
           x="-371.92789"
           height="113.39249"
           width="19.053991"
           id="rect1018-6-23-7"
           style="display:inline;fill:none;fill-opacity:1;stroke:#000000;stroke-width:0.25225163;stroke-miterlimit:4;stroke-dasharray:none;stroke-opacity:1;enable-background:new" />
        <rect
           transform="rotate(90)"
           y="-1677.1193"
           x="-372.2991"
           height="120.43443"
           width="19.029789"
           id="rect1018-6-23-6"
           style="display:inline;fill:none;fill-opacity:1;stroke:#000000;stroke-width:0.25980121;stroke-miterlimit:4;stroke-dasharray:none;stroke-opacity:1;enable-background:new" />
      </g>
      <g
         id="g1204">
        <g
           style="fill:none;stroke-width:0.16666666;stroke-miterlimit:4;stroke-dasharray:none"
           transform="matrix(2,0,0,2,-360.89637,-122.71797)"
           id="g995">
          <g
             id="g918"
             transform="matrix(2,0,0,2,-162.47152,-839.20315)"
             style="fill:none;stroke-width:0.08333333;stroke-miterlimit:4;stroke-dasharray:none">
            <g
               id="g888"
               style="fill:none;stroke-width:0.08333333;stroke-miterlimit:4;stroke-dasharray:none">
              <path
                 d="m 635.09,207.764 -3.477,1.109 -1.269,0.495 -5.273,2.471 -3.031,1.646 -2.985,1.974 -4.178,3.116 -2.895,2.636 -2.866,2.88 -4.736,5.892 -1.018,1.604 -2.696,4.604 -2.863,6.468 -2.066,6.662 -1.247,6.794 -0.418,6.86 0.418,6.861 1.247,6.794 2.066,6.662 2.863,6.467 2.696,4.605 1.018,1.604 4.736,5.892 2.866,2.88 2.895,2.636 4.178,3.115 2.985,1.975 3.031,1.646 5.273,2.471 1.269,0.495 3.477,1.109 4.373,1.099 4.12,0.748 3.962,0.433 3.885,0.143 3.885,-0.143 3.962,-0.433 4.12,-0.748 4.373,-1.099 3.477,-1.109 1.269,-0.495 5.273,-2.471 3.031,-1.646 2.985,-1.975 4.179,-3.115 2.894,-2.636 2.866,-2.88 4.736,-5.892 1.018,-1.604 2.696,-4.605 2.863,-6.467 2.066,-6.662 1.247,-6.794 0.418,-6.861 -0.418,-6.86 -1.247,-6.794 -2.066,-6.662 -2.863,-6.468 -2.696,-4.604 -1.018,-1.604 -4.736,-5.892 -2.866,-2.88 -2.894,-2.636 -4.179,-3.116 -2.985,-1.974 -3.031,-1.646 -5.273,-2.471 -1.269,-0.495 -3.477,-1.109 -4.373,-1.1 -4.12,-0.747 -3.962,-0.433 -3.885,-0.143 -3.885,0.143 -3.962,0.433 -4.12,0.747 -4.373,1.1"
                 id="path3951"
                 inkscape:connector-curvature="0"
                 style="fill:none;stroke:#000000;stroke-width:0.08333333;stroke-linecap:butt;stroke-linejoin:round;stroke-miterlimit:4;stroke-dasharray:none;stroke-opacity:1" />
              <path
                 d="m 594.072,262.975 h 10 10 10 10 10 7.358"
                 id="path3953"
                 inkscape:connector-curvature="0"
                 style="fill:none;stroke:#00ff00;stroke-width:0.08333333;stroke-linecap:butt;stroke-linejoin:round;stroke-miterlimit:4;stroke-dasharray:none;stroke-opacity:1" />
              <path
                 d="m 651.43,262.975 v -10 -10 -10 -10 -10 -7.634"
                 id="path3955"
                 inkscape:connector-curvature="0"
                 style="fill:none;stroke:#00ff00;stroke-width:0.08333333;stroke-linecap:butt;stroke-linejoin:round;stroke-miterlimit:4;stroke-dasharray:none;stroke-opacity:1" />
              <path
                 d="m 651.43,320.61 v -10 -10 -10 -10 -10 -7.635"
                 id="path3957"
                 inkscape:connector-curvature="0"
                 style="fill:none;stroke:#000000;stroke-width:0.08333333;stroke-linecap:butt;stroke-linejoin:round;stroke-miterlimit:4;stroke-dasharray:none;stroke-opacity:1"
                 sodipodi:nodetypes="ccccccc" />
              <path
                 style="fill:none;stroke:#00ff00;stroke-width:0.08333333;stroke-linecap:butt;stroke-linejoin:round;stroke-miterlimit:4;stroke-dasharray:none;stroke-opacity:1"
                 inkscape:connector-curvature="0"
                 id="path890"
                 d="m 645.95594,262.975 h 10.95437 10.95436 10.95437 10.95437 10.95437 8.06022"
                 sodipodi:nodetypes="ccccccc" />
            </g>
          </g>
          <rect
             y="-313.24368"
             x="1135.6267"
             height="122.55005"
             width="9.4488192"
             id="rect1018-14"
             style="display:inline;fill:none;fill-opacity:1;stroke:#000000;stroke-width:0.18466914;stroke-miterlimit:4;stroke-dasharray:none;stroke-opacity:1;enable-background:new" />
        </g>
        <rect
           transform="rotate(90)"
           y="-2171.4126"
           x="-758.74731"
           height="108.81902"
           width="19.029789"
           id="rect1018-6-23-7-6"
           style="display:inline;fill:none;fill-opacity:1;stroke:#000000;stroke-width:0.24695523;stroke-miterlimit:4;stroke-dasharray:none;stroke-opacity:1;enable-background:new" />
        <rect
           transform="rotate(90)"
           y="-1772.6621"
           x="-758.79108"
           height="103.17004"
           width="19.065557"
           id="rect1018-6-23-7-7"
           style="display:inline;fill:none;fill-opacity:1;stroke:#000000;stroke-width:0.24068575;stroke-miterlimit:4;stroke-dasharray:none;stroke-opacity:1;enable-background:new" />
      </g>
    </g>
  </g>
</svg>
