<?xml version='1.0' encoding='ascii'?>
<svg xmlns="http://www.w3.org/2000/svg" height="540" version="1.1" width="960">
    <g id="RenderLayer_LineSet" inkscape:groupmode="lineset" inkscape:label="RenderLayer_LineSet" xmlns:inkscape="http://www.inkscape.org/namespaces/inkscape">
        <g id="strokes" inkscape:groupmode="layer" inkscape:label="strokes" xmlns:inkscape="http://www.inkscape.org/namespaces/inkscape">
            <path d=" M 365.497, 354.734 365.568, 354.733 365.639, 354.734 365.716, 354.735 365.807, 354.736 365.926, 354.740 366.103, 354.745 366.431, 354.758 367.364, 354.795 377.355, 355.217 383.029, 355.457 393.002, 356.193 395.288, 356.362 405.215, 357.566 408.787, 358.000 418.649, 359.657 422.550, 360.313 432.312, 362.483 435.763, 363.250 445.388, 365.960 448.301, 366.780 457.744, 370.071 460.040, 370.872 469.241, 374.789 470.872, 375.483 479.749, 380.086 480.686, 380.572 489.134, 385.923 489.395, 386.088 496.908, 391.979 503.159, 398.187 508.082, 404.653 515.756, 410.440 525.367, 413.201 530.263, 414.608 539.974, 416.996 544.065, 418.002 549.624, 421.467 550.343, 424.968 549.624, 428.468 544.065, 431.934 534.354, 434.322 530.263, 435.328 520.652, 438.089 515.756, 439.496 508.082, 445.282 503.159, 451.749 496.908, 457.957 489.395, 463.848 480.947, 469.198 480.686, 469.363 471.809, 473.967 470.872, 474.453 461.671, 478.370 460.040, 479.064 450.597, 482.355 448.301, 483.156 438.675, 485.866 435.763, 486.686 426.001, 488.856 422.550, 489.623 412.688, 491.280 408.787, 491.936 398.860, 493.140 395.288, 493.574 385.315, 494.310 383.029, 494.478 373.038, 494.900 367.364, 495.140 366.431, 495.178 366.103, 495.190 365.926, 495.196 365.807, 495.199 365.716, 495.201 365.640, 495.202 365.569, 495.202 365.497, 495.202 365.421, 495.201 365.330, 495.199 365.211, 495.196 365.034, 495.190 364.706, 495.178 363.773, 495.140 353.782, 494.718 348.108, 494.478 338.135, 493.742 335.849, 493.574 325.922, 492.369 322.350, 491.936 312.488, 490.278 308.587, 489.623 298.825, 487.453 295.374, 486.686 285.749, 483.976 282.836, 483.156 273.393, 479.864 271.097, 479.064 261.896, 475.147 260.265, 474.453 251.388, 469.849 250.451, 469.363 242.003, 464.013 241.742, 463.848 234.229, 457.957 227.978, 451.749 223.055, 445.282 219.502, 438.621 217.359, 431.827 216.640, 424.968 217.359, 418.108 219.502, 411.315 223.055, 404.653 227.978, 398.187 234.229, 391.979 241.742, 386.088 250.190, 380.737 250.451, 380.572 259.328, 375.969 260.265, 375.483 269.466, 371.566 271.097, 370.872 280.540, 367.580 282.836, 366.780 292.462, 364.070 295.374, 363.250 305.136, 361.080 308.587, 360.313 318.449, 358.655 322.350, 358.000 332.277, 356.795 335.849, 356.362 345.822, 355.626 348.108, 355.457 358.099, 355.035 363.773, 354.795 364.706, 354.758 365.034, 354.745 365.211, 354.740 365.330, 354.736 365.421, 354.735 365.497, 354.734 " fill="none" stroke="rgb(0, 0, 0)" stroke-linecap="butt" stroke-linejoin="round" stroke-opacity="1.0" stroke-width="3.0" />
            <path d=" M 438.631, 22.987 448.260, 25.685 451.165, 26.499 460.612, 29.776 462.900, 30.570 472.108, 34.471 473.728, 35.157 482.614, 39.743 483.539, 40.220 491.999, 45.553 492.245, 45.708 499.755, 51.568 506.004, 57.744 510.925, 64.178 518.596, 69.099 528.533, 70.224 533.095, 70.740 543.019, 71.969 546.885, 72.447 552.438, 77.565 553.157, 84.388 552.438, 91.211 546.885, 96.329 536.961, 97.557 533.095, 98.035 523.158, 99.160 518.596, 99.676 510.925, 104.598 506.004, 111.031 499.755, 117.207 492.245, 123.068 483.785, 128.400 483.539, 128.555 474.653, 133.141 473.728, 133.618 464.520, 137.519 462.900, 138.206 453.452, 141.483 451.165, 142.276 441.536, 144.974 438.631, 145.788 428.867, 147.948 425.423, 148.710 415.560, 150.360 411.665, 151.011 401.732, 152.175 397.491, 152.672 387.515, 153.363 383.037, 153.674 373.040, 153.904 368.443, 154.010 358.446, 153.780 353.849, 153.674 343.873, 152.982 339.395, 152.672 329.463, 151.508 325.222, 151.011 315.359, 149.362 311.463, 148.710 301.700, 146.550 298.255, 145.788 288.626, 143.090 285.721, 142.276 276.274, 138.999 273.986, 138.206 264.779, 134.304 263.158, 133.618 254.272, 129.032 253.347, 128.555 244.887, 123.223 244.641, 123.068 237.131, 117.207 230.882, 111.031 225.961, 104.598 222.409, 97.970 220.267, 91.212 219.548, 84.388 220.267, 77.564 222.409, 70.805 225.961, 64.178 230.882, 57.744 237.131, 51.568 244.641, 45.708 253.101, 40.375 253.347, 40.220 262.234, 35.635 263.158, 35.157 272.366, 31.256 273.986, 30.570 283.434, 27.293 285.721, 26.499 295.351, 23.801 298.255, 22.987 308.019, 20.827 311.463, 20.065 321.326, 18.416 325.222, 17.764 335.154, 16.600 339.395, 16.103 349.371, 15.412 353.849, 15.102 363.846, 14.871 368.443, 14.766 378.440, 14.996 383.037, 15.102 393.013, 15.793 397.491, 16.103 407.423, 17.267 411.665, 17.764 421.528, 19.414 425.423, 20.065 435.187, 22.225 438.631, 22.987 " fill="none" stroke="rgb(0, 0, 0)" stroke-linecap="butt" stroke-linejoin="round" stroke-opacity="1.0" stroke-width="3.0" />
            <path d=" M 594.490, 269.836 594.072, 262.975 594.490, 256.115 595.737, 249.321 597.803, 242.659 600.666, 236.191 603.362, 231.587 604.380, 229.983 609.116, 224.091 611.982, 221.211 614.877, 218.575 619.055, 215.459 622.040, 213.485 625.071, 211.839 630.344, 209.368 631.613, 208.873 635.090, 207.764 639.463, 206.664 643.583, 205.917 647.545, 205.484 651.430, 205.341 655.315, 205.484 659.277, 205.917 663.397, 206.664 667.770, 207.764 671.247, 208.873 672.516, 209.368 677.789, 211.839 680.820, 213.485 683.805, 215.459 687.984, 218.575 690.878, 221.211 693.744, 224.091 698.480, 229.983 699.498, 231.587 702.194, 236.191 705.057, 242.659 707.123, 249.321 708.370, 256.115 708.788, 262.975 708.370, 269.836 707.123, 276.630 705.057, 283.292 702.194, 289.759 699.498, 294.364 698.480, 295.968 693.744, 301.860 690.878, 304.740 687.984, 307.376 683.805, 310.491 680.820, 312.466 677.789, 314.112 672.516, 316.583 671.247, 317.078 667.770, 318.187 663.397, 319.286 659.277, 320.034 655.315, 320.467 651.430, 320.610 647.545, 320.467 643.583, 320.034 639.463, 319.286 635.090, 318.187 631.613, 317.078 630.344, 316.583 625.071, 314.112 622.040, 312.466 619.055, 310.491 614.877, 307.376 611.982, 304.740 609.116, 301.860 604.380, 295.968 603.362, 294.364 600.666, 289.759 597.803, 283.292 595.737, 276.630 594.490, 269.836 " fill="none" stroke="rgb(0, 0, 0)" stroke-linecap="butt" stroke-linejoin="round" stroke-opacity="1.0" stroke-width="3.0" />
            <path d=" M 502.149, 337.722 496.334, 338.635 489.647, 339.238 488.434, 339.349 486.886, 339.238 480.199, 338.635 474.384, 337.722 468.056, 336.083 461.621, 333.770 455.444, 330.833 449.581, 327.304 444.093, 323.213 439.029, 318.602 434.440, 313.513 430.368, 307.998 426.855, 302.107 423.933, 295.900 421.631, 289.434 419.970, 282.773 418.968, 275.980 418.632, 269.122 418.968, 262.263 419.970, 255.470 421.631, 248.809 423.933, 242.343 426.855, 236.136 430.368, 230.245 434.440, 224.730 439.029, 219.642 444.093, 215.031 449.581, 210.939 455.444, 207.410 461.621, 204.473 468.056, 202.160 474.384, 200.521 480.199, 199.608 487.821, 198.920 488.053, 198.900 488.134, 198.893 488.178, 198.890 488.207, 198.888 488.230, 198.888 488.249, 198.887 488.266, 198.887 488.284, 198.887 488.303, 198.888 488.326, 198.888 488.355, 198.890 488.433, 198.893 488.478, 198.895 488.712, 198.920 496.334, 199.608 502.149, 200.521 508.477, 202.160 514.912, 204.473 521.089, 207.410 526.952, 210.939 532.440, 215.031 537.504, 219.642 542.093, 224.730 546.165, 230.245 549.678, 236.136 552.600, 242.343 554.902, 248.809 556.563, 255.470 557.565, 262.263 557.901, 269.122 557.565, 275.980 556.563, 282.773 554.902, 289.434 552.600, 295.900 549.678, 302.107 546.165, 307.998 542.093, 313.513 537.504, 318.602 532.440, 323.213 526.952, 327.304 521.089, 330.833 514.912, 333.770 508.477, 336.083 502.149, 337.722 " fill="none" stroke="rgb(0, 0, 0)" stroke-linecap="butt" stroke-linejoin="round" stroke-opacity="1.0" stroke-width="3.0" />
            <path d=" M 342.211, 267.773 342.222, 267.969 341.831, 274.829 340.664, 281.622 338.729, 288.284 338.647, 288.482 335.872, 294.751 332.237, 300.959 328.361, 306.186 327.827, 306.850 322.339, 312.365 320.279, 314.060 315.725, 317.455 313.646, 318.728 308.005, 321.791 307.418, 322.066 303.061, 323.738 298.612, 325.158 294.632, 326.158 294.511, 326.183 290.648, 326.749 286.934, 327.077 283.291, 327.185 279.648, 327.077 275.933, 326.749 272.071, 326.183 271.949, 326.158 267.970, 325.158 263.520, 323.738 259.163, 322.066 258.576, 321.791 252.935, 318.727 250.856, 317.455 246.303, 314.060 244.243, 312.365 238.754, 306.850 238.221, 306.186 234.344, 300.959 230.709, 294.751 227.934, 288.482 227.852, 288.284 225.918, 281.622 224.751, 274.829 224.359, 267.969 224.371, 267.773 224.751, 261.110 225.918, 254.316 227.852, 247.654 227.934, 247.457 230.709, 241.188 234.344, 234.980 238.221, 229.753 238.754, 229.089 244.243, 223.573 246.303, 221.878 250.856, 218.484 252.935, 217.211 258.576, 214.147 259.163, 213.872 263.520, 212.201 267.970, 210.781 271.949, 209.780 272.071, 209.756 275.933, 209.190 279.648, 208.861 283.291, 208.753 286.934, 208.861 290.648, 209.190 294.511, 209.756 294.632, 209.780 298.612, 210.781 303.061, 212.201 307.418, 213.872 308.005, 214.147 313.646, 217.211 315.725, 218.484 320.279, 221.878 322.339, 223.573 327.827, 229.089 328.361, 229.753 332.237, 234.980 335.872, 241.188 338.647, 247.457 338.729, 247.654 340.664, 254.316 341.831, 261.110 342.211, 267.773 " fill="none" stroke="rgb(0, 0, 0)" stroke-linecap="butt" stroke-linejoin="round" stroke-opacity="1.0" stroke-width="3.0" />
        </g>
    </g>
</svg>
